<svg xmlns="http://www.w3.org/2000/svg" viewBox="0 0 48 48" width="48" height="48">
  <defs>
    <linearGradient id="bg" x1="0%" y1="0%" x2="100%" y2="100%">
      <stop offset="0%" style="stop-color:#e91e8c;stop-opacity:1" />
      <stop offset="100%" style="stop-color:#c2185b;stop-opacity:1" />
    </linearGradient>
  </defs>
  <circle cx="24" cy="24" r="24" fill="url(#bg)"/>
  <!-- Cupcake base -->
  <path d="M16 30 L18 24 L30 24 L32 30 Z" fill="#8b5a2b" opacity="0.9"/>
  <!-- Cupcake wrapper lines -->
  <line x1="18" y1="30" x2="19" y2="24" stroke="#6d3a1a" stroke-width="0.5" opacity="0.5"/>
  <line x1="22" y1="30" x2="22.5" y2="24" stroke="#6d3a1a" stroke-width="0.5" opacity="0.5"/>
  <line x1="26" y1="30" x2="25.5" y2="24" stroke="#6d3a1a" stroke-width="0.5" opacity="0.5"/>
  <line x1="30" y1="30" x2="29" y2="24" stroke="#6d3a1a" stroke-width="0.5" opacity="0.5"/>
  <!-- Frosting -->
  <ellipse cx="24" cy="22" rx="9" ry="5" fill="#fff5f7"/>
  <ellipse cx="24" cy="20" rx="7" ry="4" fill="#fce4ec"/>
  <ellipse cx="24" cy="18.5" rx="5" ry="3" fill="#fff5f7"/>
  <!-- Cherry on top -->
  <circle cx="24" cy="15" r="2.5" fill="#e91e8c"/>
  <circle cx="23.2" cy="14.3" r="0.8" fill="white" opacity="0.6"/>
  <!-- Stem -->
  <path d="M24 12.5 Q26 11 25 9" fill="none" stroke="#4a7c59" stroke-width="1" stroke-linecap="round"/>
  <ellipse cx="25.5" cy="9" rx="1.5" ry="1" fill="#4a7c59" transform="rotate(-20,25.5,9)"/>
</svg>
